<?xml version="1.0" encoding="utf-8"?>
<!-- Generator: Adobe Illustrator 27.0.0, SVG Export Plug-In . SVG Version: 6.00 Build 0)  -->
<svg version="1.1" id="Layer_1" xmlns="http://www.w3.org/2000/svg" xmlns:xlink="http://www.w3.org/1999/xlink" x="0px" y="0px"
	 viewBox="0 0 210.92 127.61" style="enable-background:new 0 0 210.92 127.61;" xml:space="preserve">
<style type="text/css">
	.st0{fill:#FFFFFF;}
</style>
<g>
	<g>
		<path class="st0" d="M17.44,110.18v1.94L6.26,127.61H3.9l11.16-15.49H0.01v-1.94H17.44z"/>
		<path class="st0" d="M34.06,110.18c1.82,0,3.31,1.49,3.31,3.31v10.81c0,1.82-1.49,3.31-3.31,3.31H23.25
			c-1.82,0-3.31-1.49-3.31-3.31v-10.81c0-1.82,1.49-3.31,3.31-3.31H34.06z M35.43,113.49c0-0.75-0.62-1.37-1.37-1.37H23.25
			c-0.75,0-1.37,0.62-1.37,1.37v10.81c0,0.75,0.62,1.37,1.37,1.37h10.81c0.75,0,1.37-0.62,1.37-1.37V113.49z"/>
		<path class="st0" d="M55.23,110.18c1.82,0,3.31,1.49,3.31,3.31v10.81c0,1.82-1.49,3.31-3.31,3.31H44.42
			c-1.82,0-3.31-1.49-3.31-3.31v-10.81c0-1.82,1.49-3.31,3.31-3.31H55.23z M56.6,113.49c0-0.75-0.62-1.37-1.37-1.37H44.42
			c-0.75,0-1.37,0.62-1.37,1.37v10.81c0,0.75,0.62,1.37,1.37,1.37h10.81c0.75,0,1.37-0.62,1.37-1.37V113.49z"/>
		<path class="st0" d="M76.4,110.18c1.82,0,3.31,1.49,3.31,3.31v10.81c0,1.82-1.49,3.31-3.31,3.31H65.59
			c-1.82,0-3.31-1.49-3.31-3.31v-10.81c0-1.82,1.49-3.31,3.31-3.31H76.4z M77.77,113.49c0-0.75-0.62-1.37-1.37-1.37H65.59
			c-0.75,0-1.37,0.62-1.37,1.37v10.81c0,0.75,0.62,1.37,1.37,1.37H76.4c0.75,0,1.37-0.62,1.37-1.37V113.49z"/>
		<path class="st0" d="M91.24,116.56c0,0.75,0.62,1.37,1.37,1.37h10.81c1.82,0,3.31,1.49,3.31,3.31v3.06c0,1.82-1.49,3.31-3.31,3.31
			H89.77v-1.94h13.65c0.75,0,1.37-0.62,1.37-1.37v-3.06c0-0.75-0.62-1.37-1.37-1.37H92.61c-1.82,0-3.31-1.49-3.31-3.31v-3.06
			c0-1.82,1.49-3.31,3.31-3.31h13.65v1.94H92.61c-0.75,0-1.37,0.62-1.37,1.37V116.56z"/>
		<path class="st0" d="M122.47,122.28h-10.66v1.99c0,0.77,0.6,1.39,1.37,1.39h8.32v1.94h-8.32c-1.82,0-3.31-1.49-3.31-3.31v-5.98
			c0-1.82,1.49-3.31,3.31-3.31h5.98c1.82,0,3.31,1.49,3.31,3.31V122.28z M111.81,120.34h8.72v-1.99c0-0.77-0.62-1.39-1.39-1.39
			h-5.95c-0.77,0-1.37,0.62-1.37,1.39V120.34z"/>
		<path class="st0" d="M135.65,115.01v1.94h-7.74v10.66h-1.94v-12.6h1.94v1.92c0-1.07,0.87-1.92,1.94-1.92H135.65z"/>
		<path class="st0" d="M138.14,111.15h1.94v1.92h-1.94V111.15z M138.14,115.01h1.94v12.6h-1.94V115.01z"/>
		<path class="st0" d="M156.42,122.28h-10.66v1.99c0,0.77,0.6,1.39,1.37,1.39h8.32v1.94h-8.32c-1.82,0-3.31-1.49-3.31-3.31v-5.98
			c0-1.82,1.49-3.31,3.31-3.31h5.98c1.82,0,3.31,1.49,3.31,3.31V122.28z M145.76,120.34h8.72v-1.99c0-0.77-0.62-1.39-1.39-1.39
			h-5.95c-0.77,0-1.37,0.62-1.37,1.39V120.34z"/>
		<path class="st0" d="M168.6,120.34c1.82,0,3.31,1.49,3.31,3.31v0.65c0,1.84-1.49,3.31-3.31,3.31h-8.82v-1.94h8.79
			c0.77,0,1.39-0.62,1.39-1.39v-0.6c0-0.77-0.62-1.39-1.39-1.39h-5.95c-1.84,0-3.31-1.49-3.31-3.31v-0.65
			c0-1.84,1.47-3.31,3.31-3.31h8.64v1.94h-8.64c-0.77,0-1.37,0.62-1.37,1.39v0.6c0,0.77,0.6,1.39,1.37,1.39H168.6z"/>
	</g>
	<g>
		<g>
			<g id="XMLID_00000054261887759305762340000007786802640635064252_">
				<g id="XMLID_00000144295652206692179930000000313640730864342658_">
					<g id="XMLID_00000120553588260841402290000008779108645429090987_">
						<path class="st0" d="M49.53,46.96h-11.7l-3.58-8.63l-19.49,0l-3.26,8.63H0L17.57,3.37l12.59,0L49.53,46.96z M24.03,13.78
							l-6.39,16.94h13.42L24.03,13.78z"/>
					</g>
					<g id="XMLID_00000115492367008569876380000004417320222775751082_">
						<path class="st0" d="M92.02,3.37l9.46,0v43.59H90.61V19.73L78.85,33.4h-1.66L65.43,19.73v27.23H54.56V3.37l9.46,0l14,16.17
							L92.02,3.37z"/>
					</g>
					<g id="XMLID_00000101813185561532026090000000424301970855041928_">
						<path class="st0" d="M129.01,3.37c15.91,0,24.09,9.9,24.09,21.86c0,12.53-7.92,21.73-25.31,21.73h-18.02V3.37L129.01,3.37z
							 M120.63,38.97h7.09c10.93,0,14.19-7.41,14.19-13.81c0-7.48-4.03-13.8-14.32-13.8h-6.96V38.97z"/>
					</g>
				</g>
				<g id="XMLID_00000049213571062428060240000015974422439474722947_">
					<g id="XMLID_00000100380264204424614640000000992330976355342248_">
						<polygon class="st0" points="197.19,13.7 174.72,13.7 161.01,0 210.89,0 210.89,49.88 197.19,36.18 						"/>
					</g>
					<g id="XMLID_00000149384356619154414800000012971396637224134036_">
						<polygon class="st0" points="174.7,36.19 174.7,16.45 160.59,30.55 160.59,50.3 180.34,50.3 194.44,36.19 						"/>
					</g>
				</g>
			</g>
		</g>
	</g>
	<g>
		<g>
			<g>
				<polygon class="st0" points="74.48,74.83 95.69,74.83 74.48,93.09 74.48,99.24 104.98,99.24 104.98,93.14 83.77,93.14 
					104.98,74.87 104.98,68.73 74.48,68.73 				"/>
			</g>
		</g>
		<g>
			<g>
				<polygon class="st0" points="52.01,80.83 43.28,68.73 35.74,68.73 48.93,87.03 48.93,99.24 55.03,99.24 55.03,87.03 
					68.29,68.73 60.75,68.73 				"/>
			</g>
		</g>
		<g>
			<g>
				<g>
					<rect x="113.5" y="68.72" class="st0" width="30.51" height="6.1"/>
				</g>
			</g>
			<g>
				<g>
					<g>
						<polygon class="st0" points="113.5,80.93 113.5,99.25 144.01,99.25 144.01,93.14 119.61,93.14 119.61,87.04 144.01,87.04 
							144.01,80.93 						"/>
					</g>
				</g>
			</g>
		</g>
		<g>
			<g>
				<g>
					<path class="st0" d="M6.1,87.04h11.26l7.05,12.21h7.05l-7.05-12.21h0c3.37,0,6.1-2.73,6.1-6.1v-6.1c0-3.37-2.73-6.1-6.1-6.1H0
						v6.1h23.98c0.24,0,0.43,0.19,0.43,0.43v5.24c0,0.24-0.19,0.43-0.43,0.43H0v6.1v12.21h6.1V87.04z"/>
				</g>
			</g>
		</g>
		<g>
			<g>
				<polygon class="st0" points="177.69,68.73 177.69,89.95 159.42,68.73 153.27,68.73 153.27,99.24 159.37,99.24 159.37,78.03 
					177.64,99.24 183.78,99.24 183.78,68.73 				"/>
			</g>
		</g>
	</g>
</g>
</svg>
