<svg xmlns="http://www.w3.org/2000/svg" width="32" height="24" viewBox="0 0 32 24" svg-inline="" role="presentation" focusable="false"><path data-name="矩形 10" d="M0 0h32v24H0z" fill="none"></path><path data-name="路径 15" d="M24 8.59C19 11 10.52 17 10.52 17a31.45 31.45 0 005.18 2.12c3 .91 5.79 1.39 7.22 1.07 3.23-.72 6.69-7.68 7.81-10.76 0 0-4.77 2-6.27 2.7-1.31.6-6.28 3-6.28 3L26 12.78c-.14.32-2.2 4.95-4.83 5.47s-7.58-1.39-7.58-1.39A89.739 89.739 0 0131 8a2.49 2.49 0 001-1.64 24.59 24.59 0 00-8 2.23z" fill="#999"></path><path data-name="路径 16" d="M9.49 17.32c-.33-.58.08-1.38 2.64-3.26 2.3-1.69 10.61-8.64 18.55-10.49a24 24 0 00-10.1 1.16c-2.12.66-5.25 3.62-11 9.19-.77.43-3.55-1.18-5.15-2 0 0 2.65 4.22 3.58 5.48a11.35 11.35 0 004 3.11 21.65 21.65 0 01-2.52-3.19z" fill="#999"></path><path data-name="路径 17" d="M0 10.93s1.29 3.44 2.14 4a15.16 15.16 0 004.51 1.78S5.06 15.42 3.42 14 0 10.93 0 10.93z" fill="#999"></path></svg>