<?xml version="1.0" encoding="utf-8"?>
<!-- Generator: Adobe Illustrator 27.1.1, SVG Export Plug-In . SVG Version: 6.00 Build 0)  -->
<svg version="1.1" id="Layer_1" xmlns="http://www.w3.org/2000/svg" xmlns:xlink="http://www.w3.org/1999/xlink" x="0px" y="0px"
	 viewBox="0 0 216 178" style="enable-background:new 0 0 216 178;" xml:space="preserve">
<style type="text/css">
	.st0{fill:#9E9E9F;}
	.st1{fill:#FFFFFF;}
	.st2{fill:#FFBB73;}
	.st3{fill:url(#SVGID_1_);}
	.st4{fill:url(#SVGID_00000032622086778149550820000008128886123586920109_);}
	.st5{fill:url(#SVGID_00000131359960604611047740000011950700577572307106_);}
</style>
<path class="st0" d="M173.3,13.6H42.7l-9.5,9.5v130.7l9.5,9.5h130.6l9.5-9.5V23.2L173.3,13.6z M174.7,150.4l-4.8,4.8H46l-4.8-4.7
	V26.6l4.8-4.8h123.9l4.8,4.8V150.4L174.7,150.4z"/>
<path class="st1" d="M170.1,155.6H45.9l-5-4.9V26.4l5-5h124.2l5,5v124.2L170.1,155.6L170.1,155.6z M46.2,154.8h123.6l4.6-4.6V26.7
	l-4.6-4.6H46.2l-4.6,4.6v123.6C41.6,150.3,46.2,154.8,46.2,154.8z"/>
<path class="st0" d="M166.3,151.5H49.7l-4.7-4.7V30.2l4.7-4.7h116.5l4.7,4.7v116.5L166.3,151.5L166.3,151.5z M50,150.7h116l4.3-4.3
	V30.5l-4.3-4.3H50l-4.3,4.3v116L50,150.7z"/>
<path class="st0" d="M52.8,39.9l-1.9-3.2l1.9-3.3h3.7l1.9,3.3l-1.9,3.2H52.8z M159.5,39.9l-1.9-3.2l1.9-3.3h3.7l1.9,3.3l-1.9,3.2
	H159.5z M52.8,144.7l-1.9-3.2l1.9-3.2h3.7l1.9,3.2l-1.9,3.2H52.8z M159.5,144.7l-1.9-3.2l1.9-3.2h3.7l1.9,3.2l-1.9,3.2H159.5z"/>
<g>
	<path class="st2" d="M93.5,83.7h-5.6v-1c0-1.3-0.3-2.2-0.8-2.9c-0.5-0.7-1.5-1.1-2.9-1.1c-1.3,0-2.2,0.3-2.8,1
		c-0.6,0.7-0.9,1.7-0.9,3v12.4c0,1.3,0.3,2.3,0.9,3s1.5,1,2.8,1c1.5,0,2.5-0.4,3-1.2c0.5-0.8,0.7-1.9,0.7-3.2V93h5.6v1.3
		c0,3.1-0.8,5.6-2.3,7.3c-1.5,1.7-3.9,2.6-7.1,2.6c-3.1,0-5.4-0.8-7-2.5s-2.3-4.1-2.3-7.2v-11c0-3.1,0.8-5.5,2.3-7.2
		c1.6-1.7,3.9-2.5,7-2.5C90.4,73.7,93.5,77,93.5,83.7L93.5,83.7z M116.9,82.9c0,3-0.9,5.2-2.7,6.6c-1.8,1.5-4.3,2.2-7.4,2.2H104
		v11.9h-5.6V74.1h8.3c3.1,0,5.6,0.7,7.4,2.2C115.9,77.7,116.9,80,116.9,82.9z M111.2,82.9c0-1.4-0.4-2.4-1.1-3.1s-1.7-1-3-1H104v8.3
		h3.1c1.3,0,2.3-0.3,3-1C110.9,85.4,111.2,84.3,111.2,82.9z M130.7,99c2.7,0,4-1.4,4-4.1V74.1h5.6V95c0,2.9-0.8,5.1-2.5,6.7
		c-1.6,1.6-4,2.4-7.2,2.4c-3.1,0-5.5-0.8-7.2-2.4c-1.6-1.6-2.5-3.8-2.5-6.7V74.1h5.6v20.8C126.8,97.7,128.1,99,130.7,99L130.7,99z"
		/>
	<g>
		
			<linearGradient id="SVGID_1_" gradientUnits="userSpaceOnUse" x1="130.2292" y1="62.4211" x2="73.1898" y2="95.3528" gradientTransform="matrix(1 0 0 -1 0 178)">
			<stop  offset="0" style="stop-color:#E426ED"/>
			<stop  offset="0.5056" style="stop-color:#B28FEB"/>
			<stop  offset="1" style="stop-color:#2E79FF"/>
		</linearGradient>
		<path class="st3" d="M93.5,83.7h-5.6v-1c0-1.3-0.3-2.2-0.8-2.9c-0.5-0.7-1.5-1.1-2.9-1.1c-1.3,0-2.2,0.3-2.8,1
			c-0.6,0.7-0.9,1.7-0.9,3v12.4c0,1.3,0.3,2.3,0.9,3s1.5,1,2.8,1c1.5,0,2.5-0.4,3-1.2c0.5-0.8,0.7-1.9,0.7-3.2V93h5.6v1.3
			c0,3.1-0.8,5.6-2.3,7.3c-1.5,1.7-3.9,2.6-7.1,2.6c-3.1,0-5.4-0.8-7-2.5s-2.3-4.1-2.3-7.2v-11c0-3.1,0.8-5.5,2.3-7.2
			c1.6-1.7,3.9-2.5,7-2.5C90.4,73.7,93.5,77,93.5,83.7L93.5,83.7z"/>
		
			<linearGradient id="SVGID_00000086681119578044050430000011609617280884734889_" gradientUnits="userSpaceOnUse" x1="135.3605" y1="71.3087" x2="78.3211" y2="104.2403" gradientTransform="matrix(1 0 0 -1 0 178)">
			<stop  offset="0" style="stop-color:#E426ED"/>
			<stop  offset="0.5056" style="stop-color:#B28FEB"/>
			<stop  offset="1" style="stop-color:#2E79FF"/>
		</linearGradient>
		<path style="fill:url(#SVGID_00000086681119578044050430000011609617280884734889_);" d="M116.9,82.9c0,3-0.9,5.2-2.7,6.6
			c-1.8,1.5-4.3,2.2-7.4,2.2H104v11.9h-5.6V74.1h8.3c3.1,0,5.6,0.7,7.4,2.2C115.9,77.7,116.9,80,116.9,82.9z M111.2,82.9
			c0-1.4-0.4-2.4-1.1-3.1s-1.7-1-3-1H104v8.3h3.1c1.3,0,2.3-0.3,3-1C110.9,85.4,111.2,84.3,111.2,82.9z"/>
		
			<linearGradient id="SVGID_00000145754398769469145980000001750947036526106755_" gradientUnits="userSpaceOnUse" x1="142.5677" y1="83.7919" x2="85.5283" y2="116.7236" gradientTransform="matrix(1 0 0 -1 0 178)">
			<stop  offset="0" style="stop-color:#E426ED"/>
			<stop  offset="0.5056" style="stop-color:#B28FEB"/>
			<stop  offset="1" style="stop-color:#2E79FF"/>
		</linearGradient>
		<path style="fill:url(#SVGID_00000145754398769469145980000001750947036526106755_);" d="M130.7,99c2.7,0,4-1.4,4-4.1V74.1h5.6V95
			c0,2.9-0.8,5.1-2.5,6.7c-1.6,1.6-4,2.4-7.2,2.4c-3.1,0-5.5-0.8-7.2-2.4c-1.6-1.6-2.5-3.8-2.5-6.7V74.1h5.6v20.8
			C126.8,97.7,128.1,99,130.7,99L130.7,99z"/>
	</g>
</g>
</svg>
