<svg xmlns="http://www.w3.org/2000/svg" width="1024" height="1024" viewBox="0 0 1024 1024" svg-inline="" alt="facebook" role="presentation" focusable="false"><path d="M303.572 365.85h89.272v-87.112c-.558-6.041-.878-13.063-.878-20.158 0-41.664 11.01-80.76 30.273-114.532l-.597 1.138c29.122-39.877 75.711-65.49 128.283-65.49 3.625 0 7.225.12 10.79.363l-.483-.023c7.328-.342 15.915-.54 24.543-.54 48.177 0 94.924 6.105 139.513 17.581l-3.872-.847-22.318 132.11c-21.4-6.183-46.092-10.085-71.582-10.792l-.416-.008c-35.996 0-65.874 12.598-65.874 47.158V365.85h143.99l-12.242 129.232H560.226V943.97H392.838V495.082h-89.272V365.85z"></path></svg>