<?xml version="1.0" encoding="utf-8"?>
<!-- Generator: Adobe Illustrator 27.1.1, SVG Export Plug-In . SVG Version: 6.00 Build 0)  -->
<svg version="1.1" id="Layer_1" xmlns="http://www.w3.org/2000/svg" xmlns:xlink="http://www.w3.org/1999/xlink" x="0px" y="0px"
	 viewBox="0 0 216 178" style="enable-background:new 0 0 216 178;" xml:space="preserve">
<style type="text/css">
	.st0{fill:#9E9E9F;}
	.st1{fill:#FFFFFF;}
	.st2{fill:#FFBB73;}
	.st3{fill:url(#SVGID_1_);}
	.st4{fill:url(#SVGID_00000080207311444153340590000013519188890963699361_);}
	.st5{fill:url(#SVGID_00000026883360030802747000000003949445714447976581_);}
</style>
<path class="st0" d="M173.3,13.6H42.7l-9.5,9.5v130.7l9.5,9.5h130.6l9.5-9.5V23.2L173.3,13.6z M174.7,150.4l-4.8,4.8H46l-4.8-4.7
	V26.6l4.8-4.8h123.9l4.8,4.8V150.4L174.7,150.4z"/>
<path class="st1" d="M170.1,155.6H45.9l-5-4.9V26.4l5-5h124.2l5,5v124.2L170.1,155.6L170.1,155.6z M46.2,154.8h123.6l4.6-4.6V26.7
	l-4.6-4.6H46.2l-4.6,4.6v123.6C41.6,150.3,46.2,154.8,46.2,154.8z"/>
<path class="st0" d="M166.3,151.5H49.7l-4.7-4.7V30.2l4.7-4.7h116.5l4.7,4.7v116.5L166.3,151.5L166.3,151.5z M50,150.7h116l4.3-4.3
	V30.5l-4.3-4.3H50l-4.3,4.3v116L50,150.7z"/>
<path class="st0" d="M52.8,39.9l-1.9-3.2l1.9-3.3h3.7l1.9,3.3l-1.9,3.2H52.8z M159.5,39.9l-1.9-3.2l1.9-3.3h3.7l1.9,3.3l-1.9,3.2
	H159.5z M52.8,144.7l-1.9-3.2l1.9-3.2h3.7l1.9,3.2l-1.9,3.2H52.8z M159.5,144.7l-1.9-3.2l1.9-3.2h3.7l1.9,3.2l-1.9,3.2H159.5z"/>
<g>
	<path class="st2" d="M93.6,83.4H88v-0.1c0-3.3-1.2-4.9-3.5-4.9c-1.3,0-2.3,0.3-2.8,1s-0.8,1.7-0.8,3v12.3c0,1.3,0.3,2.3,0.9,3
		s1.5,1,2.8,1c1.1,0,1.9-0.4,2.6-1.1c0.6-0.7,0.9-1.8,0.9-3.1v-1.7h-4v-4.7h9.6v15.1h-2.9l-0.9-2.5c-0.8,0.9-1.7,1.6-2.5,2.1
		c-0.9,0.5-1.8,0.7-2.9,0.7c-3,0-5.3-0.8-6.8-2.5s-2.3-4.1-2.3-7.2V83c0-6.6,3.1-9.9,9.3-9.9c2.9,0,5.1,0.8,6.6,2.5
		C92.7,77.6,93.4,80.1,93.6,83.4L93.6,83.4z M117.3,82.6c0,3-0.9,5.2-2.7,6.6c-1.8,1.5-4.3,2.2-7.4,2.2h-2.8v11.9h-5.6V73.8h8.3
		c3.1,0,5.6,0.7,7.4,2.2C116.3,77.4,117.3,79.7,117.3,82.6z M111.6,82.6c0-1.4-0.4-2.4-1.1-3.1s-1.7-1-3-1h-3.1v8.3h3.1
		c1.3,0,2.3-0.3,3-1C111.3,85.1,111.6,84,111.6,82.6z M131.1,98.7c2.7,0,4-1.4,4-4.1V73.8h5.6v20.9c0,2.9-0.8,5.1-2.5,6.7
		c-1.6,1.6-4,2.4-7.2,2.4c-3.1,0-5.5-0.8-7.2-2.4c-1.6-1.6-2.5-3.8-2.5-6.7V73.8h5.6v20.8C127.2,97.4,128.5,98.7,131.1,98.7
		L131.1,98.7z"/>
	<g>
		
			<linearGradient id="SVGID_1_" gradientUnits="userSpaceOnUse" x1="74.1705" y1="82.1456" x2="133.6374" y2="116.4788" gradientTransform="matrix(1 0 0 -1 0 178)">
			<stop  offset="0" style="stop-color:#FF2473"/>
			<stop  offset="0.1266" style="stop-color:#E426ED"/>
			<stop  offset="0.5056" style="stop-color:#A680FF"/>
			<stop  offset="0.8622" style="stop-color:#3275EA"/>
			<stop  offset="1" style="stop-color:#40B1FF"/>
		</linearGradient>
		<path class="st3" d="M93.6,83.4H88v-0.1c0-3.3-1.2-4.9-3.5-4.9c-1.3,0-2.3,0.3-2.8,1s-0.8,1.7-0.8,3v12.3c0,1.3,0.3,2.3,0.9,3
			s1.5,1,2.8,1c1.1,0,1.9-0.4,2.6-1.1c0.6-0.7,0.9-1.8,0.9-3.1v-1.7h-4v-4.7h9.6v15.1h-2.9l-0.9-2.5c-0.8,0.9-1.7,1.6-2.5,2.1
			c-0.9,0.5-1.8,0.7-2.9,0.7c-3,0-5.3-0.8-6.8-2.5s-2.3-4.1-2.3-7.2V83c0-6.6,3.1-9.9,9.3-9.9c2.9,0,5.1,0.8,6.6,2.5
			C92.7,77.6,93.4,80.1,93.6,83.4L93.6,83.4z"/>
		
			<linearGradient id="SVGID_00000015350608441106856780000011406793785627767197_" gradientUnits="userSpaceOnUse" x1="77.8524" y1="75.7682" x2="137.3193" y2="110.1014" gradientTransform="matrix(1 0 0 -1 0 178)">
			<stop  offset="0" style="stop-color:#FF2473"/>
			<stop  offset="0.1266" style="stop-color:#E426ED"/>
			<stop  offset="0.5056" style="stop-color:#A680FF"/>
			<stop  offset="0.8622" style="stop-color:#3275EA"/>
			<stop  offset="1" style="stop-color:#40B1FF"/>
		</linearGradient>
		<path style="fill:url(#SVGID_00000015350608441106856780000011406793785627767197_);" d="M117.3,82.6c0,3-0.9,5.2-2.7,6.6
			c-1.8,1.5-4.3,2.2-7.4,2.2h-2.8v11.9h-5.6V73.8h8.3c3.1,0,5.6,0.7,7.4,2.2C116.3,77.4,117.3,79.7,117.3,82.6z M111.6,82.6
			c0-1.4-0.4-2.4-1.1-3.1s-1.7-1-3-1h-3.1v8.3h3.1c1.3,0,2.3-0.3,3-1C111.3,85.1,111.6,84,111.6,82.6z"/>
		
			<linearGradient id="SVGID_00000116916522618563862660000001464447568260635568_" gradientUnits="userSpaceOnUse" x1="84.5374" y1="64.1895" x2="144.0043" y2="98.5227" gradientTransform="matrix(1 0 0 -1 0 178)">
			<stop  offset="0" style="stop-color:#FF2473"/>
			<stop  offset="0.1266" style="stop-color:#E426ED"/>
			<stop  offset="0.5056" style="stop-color:#A680FF"/>
			<stop  offset="0.8622" style="stop-color:#3275EA"/>
			<stop  offset="1" style="stop-color:#40B1FF"/>
		</linearGradient>
		<path style="fill:url(#SVGID_00000116916522618563862660000001464447568260635568_);" d="M131.1,98.7c2.7,0,4-1.4,4-4.1V73.8h5.6
			v20.9c0,2.9-0.8,5.1-2.5,6.7c-1.6,1.6-4,2.4-7.2,2.4c-3.1,0-5.5-0.8-7.2-2.4c-1.6-1.6-2.5-3.8-2.5-6.7V73.8h5.6v20.8
			C127.2,97.4,128.5,98.7,131.1,98.7L131.1,98.7z"/>
	</g>
</g>
</svg>
