<svg xmlns="http://www.w3.org/2000/svg" xml:space="preserve" id="Layer_1" x="0" y="0" version="1.1" viewBox="0 0 216 178" width="216" height="178">
  <style>
    .st0{fill:#fff}
  </style>
  <path d="M73.9 68.6c-.8 1-1.6 2.1-2.3 3.2l-6.3-7.3C81.2 44.8 109.7 42 132 55.3c20.8 12.4 28.9 25.3 54.3 25.3-27.4 4.1-38.1-11.1-56.4-21-20.6-11.1-42.8-7.5-56 9zm57.4 1.8C150 83.1 168.4 95 192.7 84.2c-28.6 8.3-43.4-9.5-65.8-21.9-17.4-9.4-42.2-5.3-52.6 12.5l6.2 7.3s.8-1.7 1.7-3.2c10.3-17.6 31.8-20.3 49.1-8.5zm49.2 22.8c-23.5 3.8-37-12.6-57.8-22.7-5.4-2.6-11.2-3.7-17-2.9-9.8 1.5-18.8 8-22.3 17.8l10 11.3c-2.4-9.2 4.4-23 19.5-23 7.8 0 14.7 4.9 21.3 9.1 21.9 13.9 42.7 20 64.3 4.7 0 0-10.8 4.6-18 5.7z" class="st0"/>
  <path d="M103.2 108.6c.3-1.7 2-3.4 3.7-3.7.8-.2 1.6-.1 2.3.1.5.2 1.1-.2 1.1-.8v-.1c-.1-2.3 1.3-4.1 3.3-4.6.8-.2 1.2-1.2.9-2-.3-.7-.4-1.4-.4-2.2.1-3.5 3.6-6.2 7.2-5 1.9.6 3.3 2.2 3.7 4.1.6 3-1.3 5.7-3.9 6.4-.8.2-1.2 1.1-1 1.9.2.6.4 1.3.4 1.8-.1 2.8-2.5 5-5.3 4.9-.3 0-.6-.1-.9-.1-.8-.2-1.6.4-1.8 1.2-.2.8-.7 1.7-1.8 2.7-.9.8-2.1 1.3-3.3 1.2-2.8-.3-4.8-2.9-4.2-5.8zm-4.7 8.4c2.4 0 4.4-2 4.4-4.4 0-2.4-2-4.4-4.4-4.4s-4.4 2-4.4 4.4c0 2.5 2 4.4 4.4 4.4zm-9.2-2.1c2.2 0 4-1.8 4-4s-1.8-4-4-4-4 1.8-4 4 1.8 4 4 4zm-8.5-4.4c2 0 3.6-1.6 3.6-3.6s-1.6-3.6-3.6-3.6-3.6 1.6-3.6 3.6 1.6 3.6 3.6 3.6zm-8.6-4.8c1.8 0 3.3-1.5 3.3-3.3s-1.5-3.3-3.3-3.3c-1.8 0-3.3 1.5-3.3 3.3 0 1.8 1.5 3.3 3.3 3.3zm-8.2-5.5c1.6 0 2.9-1.3 2.9-2.9 0-1.6-1.3-2.9-2.9-2.9-1.6 0-2.9 1.3-2.9 2.9 0 1.6 1.3 2.9 2.9 2.9zm-8.6-4.7c1.4 0 2.5-1.1 2.5-2.5s-1.1-2.5-2.5-2.5-2.5 1.1-2.5 2.5c0 1.3 1.2 2.5 2.5 2.5zm-7.2-4.9c0-1.2-1-2.2-2.2-2.2-1.2 0-2.2 1-2.2 2.2 0 1.2 1 2.2 2.2 2.2 1.2-.1 2.2-1 2.2-2.2zm-10 .2c0-1-.8-1.8-1.8-1.8s-1.8.8-1.8 1.8.8 1.8 1.8 1.8 1.8-.8 1.8-1.8zm-11.1.9c-.8 0-1.4.6-1.4 1.4 0 .8.6 1.4 1.4 1.4.8 0 1.4-.6 1.4-1.4 0-.8-.7-1.4-1.4-1.4zm-8.6 4.7c-.6 0-1 .5-1 1 0 .6.5 1 1 1 .6 0 1-.5 1-1s-.4-1-1-1zm108.7 4.6c-2.4.2-4.4 2.2-4.7 4.7-.1.8 0 1.6.3 2.3.2.6-.2 1.1-.8 1.1-2.9 0-5.2 2.5-4.9 5.5 0 .3.1.5.1.7.1.3-.2.4-.4.3-.9-.6-2-1-3.2-.8-2.1.2-3.8 1.9-4 3.9-.4 2.8 1.8 5.2 4.5 5.2 2.4 0 4.4-1.9 4.5-4.2 0-.5 0-1-.1-1.4-.1-.3.2-.4.4-.3.7.5 1.5.9 2.4 1 3 .3 5.5-2 5.5-4.9 0-.4-.1-.9-.2-1.3-.2-.6.3-1.2.9-1.2 2.9 0 5.4-2.3 5.4-5.2.2-3.2-2.5-5.7-5.7-5.4zm-18.4 20.9c0-2.3-1.9-4.2-4.2-4.2-2.3 0-4.2 1.9-4.2 4.2 0 2.3 1.9 4.2 4.2 4.2s4.2-1.9 4.2-4.2zm-9.9-.3c0-2.1-1.7-3.9-3.9-3.9-2.1 0-3.9 1.7-3.9 3.9s1.7 3.9 3.9 3.9 3.9-1.7 3.9-3.9zm-9.6-2.7c0-1.9-1.6-3.5-3.5-3.5s-3.5 1.6-3.5 3.5 1.6 3.5 3.5 3.5c2 0 3.5-1.6 3.5-3.5zm-8.8-4.7c0-1.7-1.4-3.2-3.2-3.2s-3.2 1.4-3.2 3.2c0 1.7 1.4 3.2 3.2 3.2 1.8-.1 3.2-1.5 3.2-3.2zm-8.6-5.2c0-1.5-1.3-2.8-2.8-2.8s-2.8 1.3-2.8 2.8c0 1.5 1.3 2.8 2.8 2.8s2.8-1.3 2.8-2.8zm-11.2-7.4c-1.4 0-2.4 1.1-2.4 2.4 0 1.4 1.1 2.4 2.4 2.4 1.4 0 2.4-1.1 2.4-2.4.1-1.3-1-2.4-2.4-2.4zM52 97.7c-1.2 0-2.1.9-2.1 2.1s.9 2.1 2.1 2.1 2.1-.9 2.1-2.1c0-1.2-.9-2.1-2.1-2.1zm-9.5-1.6c-1 0-1.7.8-1.7 1.7 0 1 .8 1.7 1.7 1.7 1 0 1.7-.8 1.7-1.7s-.7-1.7-1.7-1.7zm-9.7.5c-.8 0-1.4.6-1.4 1.4 0 .8.6 1.4 1.4 1.4.8 0 1.4-.6 1.4-1.4 0-.8-.6-1.4-1.4-1.4zm-9.4 2.8c-.6 0-1 .5-1 1 0 .6.5 1 1 1 .6 0 1-.5 1-1 .1-.6-.4-1-1-1zm111.4 11.8c-2.3.2-4.3 1.9-4.7 4.2-.1.5-.1 1-.1 1.5.1.8-.6 1.6-1.4 1.5-.4 0-.8 0-1.3.1-2.1.4-3.7 2.2-3.9 4.3-.3 3.1 2.3 5.7 5.4 5.4 2.1-.2 3.9-1.8 4.3-3.9.1-.4.1-.9.1-1.3 0-.8.7-1.5 1.5-1.4.5 0 1 0 1.5-.1 2.3-.5 4-2.4 4.2-4.7.3-3.1-2.3-5.8-5.6-5.6zm-15 12.3c-2.5 0-4.6 2-4.6 4.6 0 2.5 2 4.6 4.6 4.6s4.6-2 4.6-4.6c0-2.6-2.1-4.6-4.6-4.6zm-9.3 3.1c-2.3 0-4.2 1.9-4.2 4.2 0 2.3 1.9 4.2 4.2 4.2 2.3 0 4.2-1.9 4.2-4.2 0-2.4-1.9-4.2-4.2-4.2zm-9.7.8c-2.1 0-3.9 1.7-3.9 3.9s1.7 3.9 3.9 3.9 3.9-1.7 3.9-3.9-1.8-3.9-3.9-3.9zm-9.6-1.3c-1.9 0-3.5 1.6-3.5 3.5s1.6 3.5 3.5 3.5 3.5-1.6 3.5-3.5-1.6-3.5-3.5-3.5zM82 123c-1.7 0-3.2 1.4-3.2 3.2 0 1.7 1.4 3.2 3.2 3.2 1.7 0 3.2-1.4 3.2-3.2-.1-1.8-1.5-3.2-3.2-3.2zm-8.3-4.8c-1.5 0-2.8 1.3-2.8 2.8s1.3 2.8 2.8 2.8 2.8-1.3 2.8-2.8-1.3-2.8-2.8-2.8zm-8.2-5c-1.4 0-2.4 1.1-2.4 2.4 0 1.4 1.1 2.4 2.4 2.4 1.4 0 2.4-1.1 2.4-2.4 0-1.3-1.1-2.4-2.4-2.4zm-8.1-5.2c-1.2 0-2.1.9-2.1 2.1 0 1.2.9 2.1 2.1 2.1 1.2 0 2.1-.9 2.1-2.1s-1-2.1-2.1-2.1zm-8.9-3.7c-1 0-1.7.8-1.7 1.7 0 1 .8 1.7 1.7 1.7 1 0 1.7-.8 1.7-1.7.1-1-.7-1.7-1.7-1.7zm-9.6-1.7c-.8 0-1.4.6-1.4 1.4 0 .8.6 1.4 1.4 1.4.8 0 1.4-.6 1.4-1.4 0-.8-.6-1.4-1.4-1.4zm-9.7.2c-.6 0-1 .5-1 1 0 .6.5 1 1 1 .6 0 1-.5 1-1 0-.6-.5-1-1-1z" class="st0"/>
</svg>
