<?xml version="1.0" encoding="utf-8"?>
<!-- Generator: Adobe Illustrator 25.4.1, SVG Export Plug-In . SVG Version: 6.00 Build 0)  -->
<svg version="1.1" id="Artwork" xmlns="http://www.w3.org/2000/svg" xmlns:xlink="http://www.w3.org/1999/xlink" x="0px" y="0px"
	 viewBox="0 0 383.2 144" style="enable-background:new 0 0 383.2 144;" xml:space="preserve">
<style type="text/css">
	.st0{fill:#80BC00;}
	.st1{fill:#302E2F;}
	.st2{fill:#FFFFFF;}
</style>
<g id="GeForce_RTX_00000010990122783204251360000013561230118968206240_">
	<path class="st0" d="M138.9,16.7v110.6H8.3V16.7H138.9z M363.4,16.7v110.6h11.6V16.7H363.4z"/>
	<rect x="138.9" y="16.7" class="st1" width="224.4" height="110.6"/>
	<path id="NVIDIA_Logo_00000087379303984477250770000017023099458284292521_" class="st1" d="M66.1,89.8l0,16.6h4.7V89.8L66.1,89.8z
		 M29.2,89.7v16.6h4.7V93.7l3.7,0c1.2,0,2.1,0.3,2.7,0.9c0.7,0.8,1,2.1,1,4.4v7.3l4.6,0l0-9.2c0-6.6-4.2-7.4-8.3-7.4H29.2
		 M73.7,89.8v16.6h7.6c4.1,0,5.4-0.7,6.8-2.2c1-1.1,1.7-3.4,1.7-5.9c0-2.3-0.6-4.4-1.5-5.7c-1.7-2.3-4.2-2.8-8-2.8H73.7z M78.3,93.4
		h2c2.9,0,4.8,1.3,4.8,4.7c0,3.4-1.9,4.7-4.8,4.7h-2V93.4z M59.4,89.8l-3.9,13.2l-3.8-13.2l-5.1,0l5.4,16.6h6.8l5.4-16.6H59.4z
		 M92,106.4h4.7V89.8l-4.7,0L92,106.4z M105.1,89.8l-6.6,16.6h4.6l1-2.9h7.8l1,2.9h5l-6.6-16.6L105.1,89.8z M108.2,92.8l2.8,7.8
		h-5.8L108.2,92.8z M59.9,50.8v-4c0.4,0,0.8,0,1.2-0.1c10.9-0.3,18.1,9.4,18.1,9.4s-7.7,10.7-16,10.7c-1.2,0-2.3-0.2-3.2-0.5V54.3
		c4.3,0.5,5.1,2.4,7.7,6.7l5.7-4.8c0,0-4.1-5.4-11.1-5.4C61.4,50.7,60.6,50.8,59.9,50.8 M59.9,37.6v6c0.4,0,0.8-0.1,1.2-0.1
		C76.3,43,86.2,56,86.2,56S74.8,69.8,63,69.8c-1.1,0-2.1-0.1-3.1-0.3v3.7c0.8,0.1,1.7,0.2,2.5,0.2c11,0,19-5.6,26.7-12.3
		c1.3,1,6.5,3.5,7.6,4.6c-7.3,6.1-24.4,11.1-34.1,11.1c-0.9,0-1.8-0.1-2.7-0.1v5.2h41.9V37.6H59.9z M59.9,66.4v3.1
		c-10.2-1.8-13-12.4-13-12.4s4.9-5.4,13-6.3v3.5c0,0,0,0,0,0c-4.3-0.5-7.6,3.5-7.6,3.5S54.2,64.5,59.9,66.4 M41.8,56.7
		c0,0,6-8.9,18.1-9.8v-3.2C46.6,44.7,35,56,35,56s6.6,18.9,24.9,20.7v-3.4C46.4,71.5,41.8,56.7,41.8,56.7z"/>
	<path class="st2" d="M172.3,67.7c-9.2,0-13.8-4.7-13.8-14.1V52c0-3,0.5-5.6,1.6-7.7c1.1-2.1,2.6-3.8,4.6-4.9c2-1.1,4.4-1.7,7.2-1.7
		h0.4c2.8,0,5.1,0.6,7.1,1.8c1.9,1.2,3.3,2.9,4.2,5.2l-5.5,1.9c-0.8-2.4-2.7-3.6-5.7-3.6h-0.3c-2.4,0-4.2,0.8-5.4,2.3
		c-1.3,1.5-1.9,3.8-1.9,6.7v1.9c0,3,0.6,5.2,1.9,6.6c1.2,1.4,3.2,2.1,5.8,2.1h0.2c1.1,0,2.1-0.1,3.1-0.2c1-0.2,1.8-0.4,2.5-0.7
		l0-5.3h-6.2l0.7-5h11.3l0,13.3c-1.4,1.1-3.1,1.9-5,2.5c-1.9,0.6-4,0.8-6.2,0.8H172.3z M189.2,67.2l0-29h19.2v5.1h-13.2l0,6.7h10.7
		l-0.7,5.1h-10l0,6.9h13.4v5.1H189.2z M213.9,67.2l0-29h19.2v5.1H220l0,7.4h10.6l-0.7,5.1H220l0,11.3H213.9z M249.2,67.7
		c-2.8,0-5.2-0.6-7.2-1.7c-2-1.2-3.5-2.8-4.6-4.9c-1.1-2.1-1.6-4.6-1.6-7.6v-1.7c0-2.9,0.5-5.4,1.6-7.6c1.1-2.1,2.6-3.8,4.6-4.9
		c2-1.2,4.4-1.7,7.2-1.7h0.4c2.8,0,5.2,0.6,7.2,1.7c2,1.2,3.5,2.8,4.6,4.9c1.1,2.1,1.6,4.6,1.6,7.6v1.7c0,2.9-0.5,5.4-1.6,7.6
		c-1.1,2.1-2.6,3.8-4.6,4.9c-2,1.2-4.4,1.7-7.2,1.7H249.2z M249.2,62.5h0.3c2.3,0,4.1-0.7,5.4-2.2c1.3-1.5,2-3.7,2-6.6v-1.9
		c0-2.9-0.7-5.2-2-6.6c-1.3-1.5-3.1-2.2-5.4-2.2h-0.3c-2.3,0-4.1,0.7-5.4,2.2c-1.3,1.5-2,3.7-2,6.6v1.9c0,3,0.7,5.2,2,6.6
		C245.2,61.7,247,62.5,249.2,62.5z M267.5,67.2l0-29h11c3.4,0,6,0.8,8,2.4c2,1.6,3,3.8,3,6.5v0.8c0,2-0.5,3.6-1.4,5
		c-1,1.4-2.3,2.4-4,3.1l6.3,11.3h-6.6l-5.7-10.3h-4.5l0,10.3H267.5z M273.6,51.6h4.8c1.5,0,2.7-0.3,3.6-0.8c1-0.6,1.4-1.5,1.4-2.8
		v-1c0-1.2-0.5-2.1-1.4-2.7c-1-0.6-2.2-0.8-3.6-0.8h-4.8L273.6,51.6z M306.6,67.7c-4.3,0-7.6-1.3-9.8-3.8c-2.2-2.5-3.4-6-3.4-10.5
		v-1.6c0-2.9,0.5-5.4,1.5-7.6c1-2.1,2.5-3.8,4.5-4.9c2-1.2,4.3-1.7,7.2-1.7h0.3c3,0,5.4,0.6,7.4,1.9c2,1.3,3.3,3.1,4.1,5.5l-5.6,2
		c-0.4-1.4-1.1-2.5-2.1-3.1c-1-0.7-2.3-1-3.7-1h-0.2c-2.3,0-4,0.7-5.3,2.2c-1.3,1.5-1.9,3.7-1.9,6.6v1.9c0,3.1,0.6,5.3,1.8,6.7
		c1.2,1.4,3,2.1,5.4,2.1h0.2c1.5,0,2.8-0.3,3.8-1c1.1-0.6,1.8-1.7,2.3-3.1l5.5,2.2c-0.8,2.3-2.2,4.1-4.2,5.3c-2,1.3-4.5,1.9-7.4,1.9
		H306.6z M322.9,67.2l0-29h19.2v5.1H329l0,6.7h10.7l-0.7,5.1h-10l0,6.9h13.4l0,5.1H322.9z M159.8,106.4l0-29h11c3.4,0,6,0.8,8,2.4
		c2,1.6,3,3.8,3,6.5v0.8c0,2-0.5,3.6-1.4,5c-1,1.4-2.3,2.4-4,3.1l6.3,11.3h-6.6L170.4,96h-4.5l0,10.3H159.8z M165.9,90.8h4.8
		c1.5,0,2.7-0.3,3.6-0.8c1-0.6,1.4-1.5,1.4-2.8v-1c0-1.2-0.5-2.1-1.4-2.7c-1-0.6-2.2-0.8-3.6-0.8h-4.8L165.9,90.8z M192.5,106.4
		l0-23.7h-8.7v-5.2h23.4v5.2h-8.7l0,23.7H192.5z M229.3,106.4l-6.6-10.1l-6.6,10.1h-7l10-14.7l-9.6-14.3h7.2l6.2,9.6l6.2-9.6h7
		l-9.6,14.3l10,14.7H229.3z"/>
</g>
</svg>
