<svg xmlns="http://www.w3.org/2000/svg" xml:space="preserve" id="Layer_1" x="0" y="0" version="1.1" viewBox="0 0 216 178" width="216" height="178">
  <style>
    .st0{fill:#fff}.st1{fill:#ffbb73}
  </style>
  <path d="M39.5 28.9 28.1 40.3v86.1l-15.5 15.9 5 5.8h180.7l5-5.8-15.5-15.9V40.2l-11.6-11.3m-1.6 4 9.3 9v80.4H32.1V41.9l9-9m38 109.4 6.2-9.8h45.4l6.2 9.8H79.1z" class="st0"/>
  <path d="M127.2 77.8v7.1h5.2v5.2h-5.2v13.3H123V72.6h10.8v5.2h-6.6zM148.1 84.9V72.6h4.2v30.9h-4.2V90.1h-5.9v13.3H138V72.6h4.2v12.3h5.9zM171.1 83.6v8.9c0 7.3-2.5 11-7.4 11h-5.9V72.6h5.9c4.9 0 7.4 3.7 7.4 11zm-4.1 8.7v-8.5c0-2.1-.3-3.6-.8-4.5-.6-1-1.5-1.4-2.8-1.4H162v20.4h1.3c1.4 0 2.4-.5 2.9-1.5s.8-2.5.8-4.5z" class="st1"/>
  <g>
    <linearGradient id="SVGID_1_" x1="121.7163" x2="168.5459" y1="74.949" y2="101.9861" gradientUnits="userSpaceOnUse">
      <stop offset="0" stop-color="#ff2473"/>
      <stop offset=".1266" stop-color="#e426ed"/>
      <stop offset=".5056" stop-color="#a680ff"/>
      <stop offset=".8622" stop-color="#3275ea"/>
      <stop offset="1" stop-color="#40b1ff"/>
    </linearGradient>
    <path fill="url(#SVGID_1_)" d="M127.2 77.8v7.1h5.2v5.2h-5.2v13.3H123V72.6h10.8v5.2h-6.6z"/>
    <linearGradient id="SVGID_00000134938164214212397930000003387393259679086218_" x1="121.7163" x2="168.5459" y1="74.949" y2="101.9861" gradientUnits="userSpaceOnUse">
      <stop offset="0" stop-color="#ff2473"/>
      <stop offset=".1266" stop-color="#e426ed"/>
      <stop offset=".5056" stop-color="#a680ff"/>
      <stop offset=".8622" stop-color="#3275ea"/>
      <stop offset="1" stop-color="#40b1ff"/>
    </linearGradient>
    <path fill="url(#SVGID_00000134938164214212397930000003387393259679086218_)" d="M148.1 84.9V72.6h4.2v30.9h-4.2V90.1h-5.9v13.3H138V72.6h4.2v12.3h5.9z"/>
    <linearGradient id="SVGID_00000119096510408169233940000015073615657665264831_" x1="121.7163" x2="168.5459" y1="74.949" y2="101.9861" gradientUnits="userSpaceOnUse">
      <stop offset="0" stop-color="#ff2473"/>
      <stop offset=".1266" stop-color="#e426ed"/>
      <stop offset=".5056" stop-color="#a680ff"/>
      <stop offset=".8622" stop-color="#3275ea"/>
      <stop offset="1" stop-color="#40b1ff"/>
    </linearGradient>
    <path fill="url(#SVGID_00000119096510408169233940000015073615657665264831_)" d="M171.1 83.6v8.9c0 7.3-2.5 11-7.4 11h-5.9V72.6h5.9c4.9 0 7.4 3.7 7.4 11zm-4.1 8.7v-8.5c0-2.1-.3-3.6-.8-4.5-.6-1-1.5-1.4-2.8-1.4H162v20.4h1.3c1.4 0 2.4-.5 2.9-1.5s.8-2.5.8-4.5z"/>
  </g>
  <g>
    <path d="M57.1 60.4v11.4c0 2.3-.3 4.2-.9 5.9.6.7 1.3 1 2.2 1v5.1h-.1c-1.7 0-3.1-1-4.3-3-1 .8-2.3 1.2-3.8 1.2-2.3 0-4-.9-5.1-2.6-1.1-1.8-1.7-4.3-1.7-7.5V60.4c0-3.3.6-5.8 1.7-7.5 1.1-1.8 2.9-2.6 5.1-2.6 2.3 0 4 .9 5.2 2.6 1.2 1.7 1.7 4.2 1.7 7.5zm-6.8 16.3c.6 0 1.2-.2 1.6-.5-.7-1.3-1.3-2.2-1.8-2.4v-5.1c.6.1 1.2.4 1.7.9s.9 1.1 1.3 1.9H53V59.6c0-1.4-.2-2.5-.6-3.2-.4-.7-1.1-1.1-2.1-1.1s-1.6.4-2.1 1.1c-.4.7-.6 1.8-.6 3.2v12.8c0 1.4.2 2.5.6 3.2.4.7 1.1 1.1 2.1 1.1zM72.2 62.9V50.6h4.2v30.9h-4.2V68.1h-5.9v13.3h-4.2V50.6h4.2v12.3h5.9zM95.2 61.6v8.9c0 7.3-2.5 11-7.4 11h-5.9V50.6h5.9c4.9 0 7.4 3.7 7.4 11zM91 70.3v-8.5c0-2.1-.3-3.6-.8-4.5-.6-1-1.5-1.4-2.8-1.4H86v20.4h1.3c1.4 0 2.4-.5 2.9-1.5.6-1 .8-2.5.8-4.5z" class="st1"/>
    <g>
      <linearGradient id="SVGID_00000085218667521892130290000000036332166392376704_" x1="45.3036" x2="92.7016" y1="52.5102" y2="79.8755" gradientUnits="userSpaceOnUse">
        <stop offset="0" stop-color="#ff2473"/>
        <stop offset=".1266" stop-color="#e426ed"/>
        <stop offset=".5056" stop-color="#a680ff"/>
        <stop offset=".8622" stop-color="#3275ea"/>
        <stop offset="1" stop-color="#40b1ff"/>
      </linearGradient>
      <path fill="url(#SVGID_00000085218667521892130290000000036332166392376704_)" d="M57.1 60.4v11.4c0 2.3-.3 4.2-.9 5.9.6.7 1.3 1 2.2 1v5.1h-.1c-1.7 0-3.1-1-4.3-3-1 .8-2.3 1.2-3.8 1.2-2.3 0-4-.9-5.1-2.6-1.1-1.8-1.7-4.3-1.7-7.5V60.4c0-3.3.6-5.8 1.7-7.5 1.1-1.8 2.9-2.6 5.1-2.6 2.3 0 4 .9 5.2 2.6 1.2 1.7 1.7 4.2 1.7 7.5zm-6.8 16.3c.6 0 1.2-.2 1.6-.5-.7-1.3-1.3-2.2-1.8-2.4v-5.1c.6.1 1.2.4 1.7.9s.9 1.1 1.3 1.9H53V59.6c0-1.4-.2-2.5-.6-3.2-.4-.7-1.1-1.1-2.1-1.1s-1.6.4-2.1 1.1c-.4.7-.6 1.8-.6 3.2v12.8c0 1.4.2 2.5.6 3.2.4.7 1.1 1.1 2.1 1.1z"/>
      <linearGradient id="SVGID_00000080207164335123927400000009626260355093869440_" x1="45.3036" x2="92.7016" y1="52.5102" y2="79.8755" gradientUnits="userSpaceOnUse">
        <stop offset="0" stop-color="#ff2473"/>
        <stop offset=".1266" stop-color="#e426ed"/>
        <stop offset=".5056" stop-color="#a680ff"/>
        <stop offset=".8622" stop-color="#3275ea"/>
        <stop offset="1" stop-color="#40b1ff"/>
      </linearGradient>
      <path fill="url(#SVGID_00000080207164335123927400000009626260355093869440_)" d="M72.2 62.9V50.6h4.2v30.9h-4.2V68.1h-5.9v13.3h-4.2V50.6h4.2v12.3h5.9z"/>
      <linearGradient id="SVGID_00000036966170438105810140000005419984990936578484_" x1="45.3036" x2="92.7016" y1="52.5102" y2="79.8755" gradientUnits="userSpaceOnUse">
        <stop offset="0" stop-color="#ff2473"/>
        <stop offset=".1266" stop-color="#e426ed"/>
        <stop offset=".5056" stop-color="#a680ff"/>
        <stop offset=".8622" stop-color="#3275ea"/>
        <stop offset="1" stop-color="#40b1ff"/>
      </linearGradient>
      <path fill="url(#SVGID_00000036966170438105810140000005419984990936578484_)" d="M95.2 61.6v8.9c0 7.3-2.5 11-7.4 11h-5.9V50.6h5.9c4.9 0 7.4 3.7 7.4 11zM91 70.3v-8.5c0-2.1-.3-3.6-.8-4.5-.6-1-1.5-1.4-2.8-1.4H86v20.4h1.3c1.4 0 2.4-.5 2.9-1.5.6-1 .8-2.5.8-4.5z"/>
    </g>
  </g>
  <g>
    <path d="M69.7 78.2h76.5v1.4H69.7z" class="st0" transform="rotate(-60.297 107.9955 78.9548)"/>
  </g>
</svg>
