<svg xmlns="http://www.w3.org/2000/svg" data-name="圖層 1" viewBox="0 0 32 32" svg-inline="" alt="language change" role="presentation" focusable="false" class="Footer__languageIcon__7s29R"><path d="M16 0a16 16 0 1016 16A16 16 0 0016 0zm14.28 16h-5.85a29.25 29.25 0 00-.65-6.25 18.25 18.25 0 004.08-1.7 14.21 14.21 0 012.42 8zm-21 0a27.59 27.59 0 01.61-5.83 29.15 29.15 0 005.24.61V16H9.29zm13.42 0h-5.84v-5.22a29.15 29.15 0 005.24-.61 27.59 27.59 0 01.61 5.83zm-7.56 14.14c-1.67-.48-3.17-2.32-4.23-5a26.22 26.22 0 014.23-.45zm1.72-5.42a26.22 26.22 0 014.23.45c-1.06 2.65-2.56 4.49-4.23 5zm0-1.72v-5.25h5.79a25.52 25.52 0 01-1 5.76 29.41 29.41 0 00-4.79-.51zm0-13.94v-7.2c2 .57 3.75 3.11 4.81 6.64a27.42 27.42 0 01-4.81.56zm-1.72-7.2v7.2a27.42 27.42 0 01-4.81-.56c1.06-3.5 2.81-6.07 4.81-6.64zm0 15.89V23a29.41 29.41 0 00-4.8.51 25.52 25.52 0 01-1-5.76zm-6.5 6.15a20.36 20.36 0 00-3.53 1.31 14.26 14.26 0 01-3.27-7.46h5.78a27.14 27.14 0 001.02 6.15zm.56 1.64a14.1 14.1 0 002.25 4 14.19 14.19 0 01-5.08-3 19.55 19.55 0 012.83-1zm13.6 0a19.55 19.55 0 012.83 1 14.19 14.19 0 01-5.08 3 14.1 14.1 0 002.25-4zm.56-1.64a27.14 27.14 0 001-6.15h5.78a14.26 14.26 0 01-3.27 7.46 20.36 20.36 0 00-3.51-1.31zM26.8 6.68a17.25 17.25 0 01-3.45 1.4 15.46 15.46 0 00-2.8-5.6 14.3 14.3 0 016.25 4.2zm-15.35-4.2a15.46 15.46 0 00-2.8 5.6 17.25 17.25 0 01-3.45-1.4 14.3 14.3 0 016.25-4.2zM4.14 8.05a18.25 18.25 0 004.08 1.7A29.25 29.25 0 007.57 16H1.72a14.21 14.21 0 012.42-7.95z"></path></svg>