<svg xmlns="http://www.w3.org/2000/svg" xml:space="preserve" id="LOGO" x="0" y="0" version="1.1" viewBox="0 0 766.7 96.19">
  <style>
    .st0{fill:#fff}
  </style>
  <path d="M211.05 81.73V56.36h21.03v-5.28h-32.01v35.94h38.99l-4.62-5.29h-23.39zm26.17-4.62 8.73 9.91h28.01V51.08h-36.74v26.03zm10.73-20.75h15.28v25.36h-9.17l-6.11-6.93V56.36zm31.01 20.75 8.73 9.91h29.16V51.08h-37.89v26.03zm10.73-20.75h16.42v25.36H295.8l-6.11-6.93V56.36zm110.88 14.12L371 51.08v35.94h10.73V67.45l29.42 19.57V51.08h-10.58v19.4zm54.27-14.12 4.57-5.28h-43.13v35.94h41.54V67.45h-10.74v14.28h-19.86V56.36h27.62zm-99.76 24.91 10.78 12.55V51.08h-10.78v30.19zm-22.37.46V51.08h-10.73v30.69l4.53 5.25h28.98l-4.57-5.29h-18.21zm68.88-57.88-30.66-19.4v35.94h10.73V20.83l30.5 19.56V4.45h-10.57v19.4zM492.6 9.73V4.45h-36.86v35.94h41.42l-4.5-5.29h-26.14V25.09h26.08V19.8h-26.08V9.73h26.08zm90.36 37.46V4.45h-10.78v30.19l10.78 12.55zm43.03-37.46 4.57-5.28h-42.47v35.94h40.88V20.83h-10.73V35.1h-19.21V9.73h26.96zm83.5 14.12-30.65-19.4v35.94h10.73V20.83l30.49 19.56V4.45h-10.57v19.4zM429.1 40.39h10.73V9.73h13.34V4.45h-37.42v5.28h13.35v30.66zM535.38 4.45v30.69l4.53 5.25h31.71l-4.57-5.29h-20.94V4.45h-10.73zm-5.24 30.65h-21.7V4.45h-10.73v30.69l4.53 5.25h32.47l-4.57-5.29zM350.45 4.45l4.57 5.28v30.66h10.78V4.45h-15.35zM673.7 9.73V4.45h-39.58v35.94h39.58l.06-5.29H644.9V25.09h28.8V19.8h-28.8V9.73h28.8zM229.95 23.6l14.68 16.79h-12.68l-19.36-22.08h18.18V9.74h-19.82v30.65h-10.88V4.45h41.28V23.6h-11.4zm15.96 6.88V4.45h40.77v35.94h-32.04l-8.73-9.91zm10.73-2.31 6.11 6.93h13.19V9.74h-19.3v18.43zm65.35-7.34h10.73v19.56H291.8V4.45h42.51l-4.57 5.29h-27.01V35.1h19.25l.01-14.27zm426.14-11.1h14.03l4.54-5.29h-44.07v5.29h14.72v30.66h10.78V9.73zM57.97 22.2c13.64-16.96 36.6-20.76 57.89-9.32 18.91 10.16 30.01 25.92 58.31 21.65-26.24 0-34.62-13.29-56.1-26.09C95-5.31 65.57-2.35 49.14 17.96l6.48 7.51c.72-1.13 1.49-2.24 2.35-3.27z" class="st0"/>
  <path d="M66.56 32.84c10.62-18.18 32.87-20.92 50.7-8.79 19.35 13.16 38.3 25.44 63.42 14.35-29.59 8.54-44.88-9.82-67.95-22.67-17.96-9.73-43.56-5.5-54.38 12.9l6.45 7.54c.01 0 .83-1.73 1.76-3.33z" class="st0"/>
  <path d="M168.14 47.7c-24.24 3.97-38.26-12.99-59.69-23.45-5.54-2.7-11.62-3.84-17.51-2.95-10.09 1.52-19.42 8.3-23.04 18.37l10.31 11.67c-2.45-9.54 4.51-23.77 20.16-23.77 8.05 0 15.2 5.1 21.97 9.4 22.65 14.38 44.16 20.63 66.4 4.82 0 .01-11.17 4.7-18.6 5.91z" class="st0"/>
  <path d="M88.16 72.76c2.99.33 5.52-2 5.52-4.92v-.02c0-.53.53-.91 1.01-.68.93.44 2 .62 3.14.44 2.38-.38 4.27-2.35 4.54-4.74.16-1.41-.22-2.73-.97-3.78-.28-.4.05-.94.54-.9.37.03.76.03 1.15-.01 2.7-.29 4.9-2.44 5.24-5.13.5-3.94-2.88-7.24-6.84-6.63-2.21.34-4.07 1.97-4.72 4.11-.55 1.8-.15 3.45.61 4.83.58 1.06-.3 1.38-1.21 1.52-2.16.34-3.41 1.34-4.23 2.99-.45.9-.47 1.88-.41 2.67.04.54-.49.93-.99.72-.56-.23-1.17-.35-1.81-.35-2.92 0-5.25 2.53-4.92 5.52.24 2.27 2.08 4.11 4.35 4.36zm-11.05.19c2.47 0 4.47-2 4.47-4.47s-2-4.47-4.47-4.47-4.47 2-4.47 4.47 2 4.47 4.47 4.47zm-11.23-4.47c2.2 0 3.98-1.78 3.98-3.98s-1.78-3.98-3.98-3.98-3.98 1.78-3.98 3.98 1.78 3.98 3.98 3.98zM55.07 62.6c1.93 0 3.49-1.56 3.49-3.49s-1.56-3.49-3.49-3.49-3.49 1.56-3.49 3.49 1.56 3.49 3.49 3.49zm-9.93-6.63c1.66 0 3-1.34 3-3s-1.34-3-3-3-3 1.34-3 3 1.34 3 3 3zm-8.23-7.21c0-1.39-1.13-2.51-2.52-2.51s-2.51 1.13-2.51 2.51c0 1.39 1.13 2.52 2.51 2.52 1.39 0 2.52-1.13 2.52-2.52zm-11.92-1.48c0-1.12-.91-2.03-2.03-2.03-1.12 0-2.03.91-2.03 2.03 0 1.12.91 2.03 2.03 2.03 1.12 0 2.03-.91 2.03-2.03zm-13.47.64c-.85 0-1.54.69-1.54 1.54S10.67 51 11.52 51s1.54-.69 1.54-1.54-.69-1.54-1.54-1.54zm-10.47 5.4c-.58 0-1.05.47-1.05 1.05s.47 1.05 1.05 1.05c.58 0 1.05-.47 1.05-1.05s-.47-1.05-1.05-1.05z" class="st0"/>
  <path d="M100.73 79.04c.04-.27.07-.53.07-.79 0-.57.63-.91 1.11-.6 1.04.68 2.32 1.01 3.69.84 2.38-.3 4.31-2.19 4.66-4.56.13-.85.06-1.66-.17-2.4-.29-.95.37-1.9 1.36-1.95.24-.01.48-.04.73-.08 2.56-.43 4.58-2.55 4.89-5.13.45-3.86-2.81-7.1-6.68-6.6-2.72.35-4.88 2.61-5.12 5.35-.08.91.05 1.78.34 2.57.34.92-.27 1.9-1.25 1.99-.18.02-.35.04-.53.08-2.24.43-4 2.26-4.33 4.52-.05.36-.07.71-.05 1.05.02.55-.59.92-1.07.64-.91-.54-2-.8-3.16-.65-2.21.28-3.99 2.05-4.28 4.26-.41 3.24 2.29 5.96 5.53 5.57 2.15-.28 3.91-1.97 4.26-4.11zm-12.97 1.27c0-2.47-2-4.47-4.47-4.47s-4.47 2-4.47 4.47 2 4.47 4.47 4.47 4.47-2 4.47-4.47zm-12.47-2.65c0-2.2-1.78-3.98-3.98-3.98s-3.98 1.78-3.98 3.98 1.78 3.98 3.98 3.98c2.2-.01 3.98-1.79 3.98-3.98zm-11.04-5.41c0-1.93-1.56-3.49-3.49-3.49s-3.49 1.56-3.49 3.49 1.56 3.49 3.49 3.49c1.92 0 3.49-1.57 3.49-3.49zM53.4 66.07c0-1.66-1.34-3-3-3s-3 1.34-3 3 1.34 3 3 3c1.66.01 3-1.34 3-3zm-12.87-8.91c-1.39 0-2.51 1.13-2.51 2.51 0 1.39 1.13 2.52 2.51 2.52 1.39 0 2.52-1.13 2.52-2.52-.01-1.38-1.13-2.51-2.52-2.51zm-11.09-3.62c-1.12 0-2.03.91-2.03 2.03 0 1.12.91 2.03 2.03 2.03 1.12 0 2.03-.91 2.03-2.03 0-1.12-.91-2.03-2.03-2.03zm-11.84-.46c-.85 0-1.54.69-1.54 1.54s.69 1.54 1.54 1.54 1.54-.69 1.54-1.54-.69-1.54-1.54-1.54zM6.08 56.51c-.58 0-1.05.47-1.05 1.05s.47 1.05 1.05 1.05c.58 0 1.05-.47 1.05-1.05s-.47-1.05-1.05-1.05zm112.14 12.57c-2.59.33-4.69 2.38-5.08 4.96-.13.82-.08 1.61.1 2.34.23.93-.46 1.8-1.42 1.84-.36.01-.74.07-1.12.16-2.22.57-3.91 2.49-4.12 4.77-.31 3.47 2.64 6.35 6.13 5.9 2.36-.3 4.28-2.17 4.66-4.52.11-.66.09-1.3-.03-1.9-.18-.91.54-1.77 1.46-1.74.55.02 1.12-.04 1.71-.2 2.37-.64 4.16-2.71 4.39-5.15.36-3.8-2.86-6.94-6.68-6.46z" class="st0"/>
  <circle cx="101.16" cy="88.61" r="4.96" class="st0"/>
  <path d="M89.21 87.25c-2.47 0-4.47 2-4.47 4.47s2 4.47 4.47 4.47 4.47-2 4.47-4.47-2-4.47-4.47-4.47zm-12.59-.96c-2.2 0-3.98 1.78-3.98 3.98s1.78 3.98 3.98 3.98 3.98-1.78 3.98-3.98-1.78-3.98-3.98-3.98zM65.39 82.2c-1.93 0-3.49 1.56-3.49 3.49 0 1.93 1.56 3.49 3.49 3.49s3.49-1.56 3.49-3.49c0-1.93-1.56-3.49-3.49-3.49zm-10.01-6.35c-1.66 0-3 1.34-3 3s1.34 3 3 3 3-1.34 3-3-1.34-3-3-3zm-9.8-6.67c-1.39 0-2.52 1.13-2.52 2.52 0 1.39 1.13 2.52 2.52 2.52s2.52-1.13 2.52-2.52c0-1.39-1.13-2.52-2.52-2.52zm-10.14-6.11c-1.12 0-2.03.91-2.03 2.03 0 1.12.91 2.03 2.03 2.03 1.12 0 2.03-.91 2.03-2.03 0-1.12-.91-2.03-2.03-2.03zm-11.47-3.22c-.85 0-1.54.69-1.54 1.54s.69 1.54 1.54 1.54 1.54-.69 1.54-1.54-.69-1.54-1.54-1.54zm-12.08-.04c-.58 0-1.05.47-1.05 1.05s.47 1.05 1.05 1.05 1.05-.47 1.05-1.05-.47-1.05-1.05-1.05zm461.12-8.73-.67.78h-1.96v4.51h-1.58v-4.51h-1.98l-.67-.78h6.86zm1.89 5.28h-1.58v-5.29l3.26 2.12 3.26-2.12v5.29h-1.56v-3.03l-1.69 1.07-1.68-1.07v3.03h-.01z" class="st0"/>
</svg>
